<svg height="512pt" viewBox="0 0 512 512" width="512pt" xmlns="http://www.w3.org/2000/svg"><path d="m301 180-88.199219 30-1.800781-.601562-90-29.398438 60-60 30-29.398438.601562-.601562 29.398438 30zm0 0" fill="#ede9e8"/><path d="m301 180-88.199219 30-1.800781-.601562v-118.796876l.601562-.601562 29.398438 30zm0 0" fill="#dfd7d5"/><path d="m241 60v60h-60v-60l27.597656-30 2.402344 2.101562zm0 0" fill="#5a5a5a"/><path d="m241 120h-30v-87.898438l30 27.898438zm0 0" fill="#444"/><path d="m241 0v60h-84.902344l-95.097656 95.097656v115.902344h60l60 60v150l-60 31h-121v-381.5l131.5-130.5zm0 0" fill="#fed2a4"/><path d="m211 0h30v60h-30zm0 0" fill="#ffbd86"/><path d="m125.394531 365.390625 21.210938 21.210937-59.996094 60-21.210937-21.210937zm0 0" fill="#ffbd86"/><g fill="#56c225"><path d="m301 90h60v30h-60zm0 0"/><path d="m391 120h61v30h-61zm0 0"/><path d="m391 60h61v30h-61zm0 0"/><path d="m482 90h30v30h-30zm0 0"/><path d="m482 150h30v30h-30zm0 0"/><path d="m482 30h30v30h-30zm0 0"/></g><path d="m271 271v150l30 30v61h-180v-332h180v61zm0 0" fill="#70da40"/><path d="m121 271h60v60h-60zm0 0" fill="#fed2a4"/><path d="m271 271v150l30 30v61h-90v-332h90v61zm0 0" fill="#56c225"/><path d="m301 241h-60v210h60v-30l-15-15 15-15v-30l-15-15 15-15v-30l-15-15 15-15zm0 0" fill="#dfd7d5"/><path d="m271 271h30v30h-30zm0 0" fill="#c4b3af"/><path d="m271 331h30v30h-30zm0 0" fill="#c4b3af"/><path d="m271 391h30v30h-30zm0 0" fill="#c4b3af"/></svg>